PathFileType	4	(X/Y/Z)	OpenSim_Sub03_CSStiffKnee_Accel.trc
DataRate	CameraRate	NumFrames	NumMarkers	Units	OrigDataRate	OrigDataStartFrame	OrigNumFrames
100	100	17	8	m	100	3183	3637
Frame#	Time	torso_imu_offset_imu	pelvis_imu_offset_imu	tibia_r_imu_offset_imu	femur_r_imu_offset_imu	tibia_l_imu_offset_imu	femur_l_imu_offset_imu	toes_r_imu_offset_imu	toes_l_imu_offset_imu
				X1	Y1	Z1	X2	Y2	Z2	X3	Y3	Z3	X4	Y4	Z4	X5	Y5	Z5	X6	Y6	Z6	X7	Y7	Z7	X8		Y8	Z8	

3183	31.82000000	13.94710700	2.82151600	4.94086600	17.00709100	-2.94499500	5.85673700	16.55341700	-3.17386700	0.49696500	12.58977800	-2.77651500	1.22759800	12.49541300	-10.60235300	-4.78710000	12.65074800	1.54413900	-0.55932900	5.69675800	-6.90171300	9.08970500	7.20209400	-8.17322000	11.56796500
3184	31.83000000	12.42527900	3.26925600	4.78543400	16.43239700	-1.27876800	5.52764900	15.73407800	-4.83944800	-0.31731200	11.66021600	-1.59472700	2.19438400	10.20855700	-13.93368100	-0.96193200	9.88647500	0.20325300	-0.70225800	9.15883900	-8.25641000	8.42915600	9.20795400	-2.18845500	10.41133300
3185	31.84000000	11.19183500	3.81578100	4.57258700	13.49835300	0.66960000	4.60645700	13.36174900	-5.81533700	-0.91972100	11.32093300	-0.75207800	3.23574900	9.39299700	-10.66554500	-0.06156000	8.60415500	-3.62051700	0.41918900	14.52793200	-6.87726800	11.21026900	5.51134400	-0.85009600	11.13696400
3186	31.85000000	10.33244600	4.05052000	4.12083300	11.01212700	1.94464600	4.24274600	10.83302700	-3.05881800	-2.65807000	11.36726100	0.55221900	3.52925400	6.83893800	-3.38230500	-2.72875900	8.33609000	-6.57970900	0.15410400	15.63651100	-4.81165400	11.70587800	5.56930500	2.93142500	11.07879300
3187	31.86000000	9.69626700	4.11082800	3.69833400	9.28528300	2.42488700	4.21081700	9.87150800	2.58694700	-2.60845200	10.84965200	1.38749200	3.22250700	7.41846100	2.13692800	-1.19733300	8.57054900	-6.20277000	-1.35965800	18.46607600	-3.02394500	11.14734700	4.67334100	5.62885000	11.20474500
3188	31.87000000	9.41576100	3.90839900	3.38019000	8.21204200	2.24008900	3.83134700	9.80265900	9.08342600	-3.60169400	11.36414000	3.70004800	2.08385400	9.90363300	0.03038400	-4.16983100	8.82807000	-5.56192300	-2.75845500	15.71200400	-2.25904500	10.26179700	5.93718000	2.82133000	10.70105000
3189	31.88000000	9.24884000	3.44737800	3.47644900	7.52763700	1.32880400	3.63351800	9.92069200	12.99192900	-4.06018500	11.95095900	4.98640300	1.00227700	9.77725200	-6.17428400	-0.14204800	8.88744800	-3.61853500	-3.90394700	14.79907100	-2.69186500	10.82008400	6.64433400	0.81592400	10.20620800
3190	31.89000000	9.29295900	2.86972200	3.67860000	7.39161900	0.01677600	3.71307400	9.69884000	15.38295100	-5.32298000	13.19248000	4.61036500	0.82321400	10.44211600	-8.74318900	-1.09478500	9.71699400	-0.02548500	-4.47503200	18.95327900	0.19547800	20.34766700	6.60550800	-0.21607900	10.53161200
3191	31.90000000	9.54606200	2.45033500	3.95467100	8.15685300	-1.26724900	3.83168200	9.66251700	15.87127400	-2.31660100	13.50283200	2.69607100	1.41492200	10.72435700	-7.86027000	-1.37162400	10.41151900	1.83494800	-4.34922400	8.81310800	-6.12574500	23.89834100	6.21770700	0.20471000	10.85078800
3192	31.91000000	9.64148400	2.07116700	4.32784200	9.55782300	-1.97042300	3.93643700	7.93361700	12.51629200	-2.69625800	13.24583200	0.64827600	2.01570100	10.28905200	-3.54061500	-0.98894000	10.27964000	1.09830700	-3.91346200	-6.28169100	-12.77888500	10.59091800	6.56426100	1.06049100	10.64929200
3193	31.92000000	9.84097000	1.93514000	4.62683000	10.76885500	-2.31665400	3.85330500	4.44886500	3.46575400	3.27111000	12.19538400	-0.45242800	2.06657500	11.16106400	-1.01595100	-1.41163800	9.74578300	-0.30401900	-3.60651600	1.47624800	-13.10244900	11.81744500	6.14139600	1.15003900	10.73016700
3194	31.93000000	9.57204100	1.87120400	4.75041100	11.70771300	-2.39404700	3.70735600	0.76617000	-0.57925200	1.80607600	10.18596900	-0.58279300	2.19027100	10.42091800	-2.95460200	-1.67576800	9.44568800	-0.91182100	-2.21453700	0.28584700	-10.73123700	10.12126500	5.98730500	1.58062300	10.81355300
3195	31.94000000	8.90954300	1.88916900	5.00422000	11.84255800	-2.06324300	3.54033000	2.66179600	-0.80525700	-0.18789600	9.21730100	-0.60253700	2.67375100	9.70018300	-3.45187900	-1.11094200	9.31976100	-1.25683500	-0.72605100	0.20918300	-8.84324500	9.96286300	5.63370300	1.24575800	10.88981900
3196	31.95000000	8.23070300	1.87247300	4.88887300	11.02425000	-1.44179800	3.57660000	4.90974100	0.95505800	1.59974500	8.63113300	-0.75650500	2.74720000	9.58236400	-1.26928100	-0.22780400	9.16597400	-1.75455600	-0.41739300	-1.59120400	-7.24210900	8.28537700	5.65459100	1.07034400	10.66377500
3197	31.96000000	7.85690100	1.94020400	4.76219900	9.92099400	-0.86585200	3.65200200	5.67315100	2.83706600	1.65118300	8.65790400	-0.08924900	2.63987200	9.52113100	0.53539300	0.01856400	9.08625400	-2.29137300	-0.47184300	-0.91679300	-6.48341900	7.77902700	5.70052000	0.95249100	10.57182200
3198	31.97000000	7.75551800	2.22470300	4.57409700	8.82062800	-0.43157700	3.86138100	5.06496700	3.56918400	2.24921600	9.54518300	0.47461900	2.38141200	9.34232500	1.47573900	0.69162100	9.12133100	-2.65828400	-0.50460500	0.85131100	-5.82691100	8.38982700	6.47171700	0.46214500	10.04348900
3199	31.98000000	7.87375100	2.50009300	4.40291000	7.73450000	-0.47116200	4.01032800	5.34124300	4.06391200	1.68657400	8.12755300	-0.04060500	2.31634200	9.31693900	1.57849700	0.65269300	9.01025300	-2.28661500	-0.69887300	2.06217700	-4.66147500	8.87770300	5.72723900	0.26254600	10.45971100
